<svg width="83" height="16" viewBox="0 0 83 16" fill="none" xmlns="http://www.w3.org/2000/svg">
<path d="M2.73585 3.31604C3.05352 1.95937 4.26348 1 5.65684 1H66C67.6569 1 69 2.34315 69 4V12C69 13.6569 67.6569 15 66 15H3.78361C1.85039 15 0.421867 13.1983 0.862616 11.316L2.73585 3.31604Z" fill="#D81B1B"/>
<path d="M59.6309 1.5H77.1572C78.7837 1.5 79.9775 3.02858 79.583 4.60645L77.583 12.6064C77.3047 13.7193 76.3044 14.5 75.1572 14.5H57.7754C56.1668 14.4999 54.9767 13.0026 55.3398 11.4355L57.1963 3.43555C57.4591 2.30264 58.4679 1.50014 59.6309 1.5Z" fill="white" stroke="#D81B1B"/>
<path d="M62.584 3.55078H63.8672C64.9961 3.55078 65.8438 3.76758 66.4102 4.20117C66.9805 4.63086 67.2656 5.375 67.2656 6.43359V9.02344C67.2656 10.1367 66.9824 10.9199 66.416 11.373C65.8535 11.8223 65.0117 12.0469 63.8906 12.0469H62.4023C61.5234 12.0469 60.7891 11.8535 60.1992 11.4668C59.6133 11.0801 59.3203 10.5938 59.3203 10.0078C59.3203 9.77734 59.3887 9.61133 59.5254 9.50977C59.6621 9.4082 59.793 9.35742 59.918 9.35742H60.6152C60.9199 9.35742 61.1758 9.53125 61.3828 9.87891C61.5898 10.2227 61.998 10.3945 62.6074 10.3945H63.6855C64.166 10.3945 64.5137 10.2988 64.7285 10.1074C64.9473 9.91211 65.0566 9.55078 65.0566 9.02344V8.80664H62.584C61.4707 8.80664 60.625 8.60547 60.0469 8.20312C59.4727 7.79688 59.1855 7.12305 59.1855 6.18164C59.1855 5.23633 59.4727 4.5625 60.0469 4.16016C60.625 3.75391 61.4707 3.55078 62.584 3.55078ZM62.7891 7.1543H65.0566V6.43359C65.0566 5.95312 64.9473 5.62891 64.7285 5.46094C64.5137 5.29297 64.1582 5.20898 63.6621 5.20898H62.7891C62.3086 5.20898 61.9551 5.2793 61.7285 5.41992C61.5059 5.56055 61.3945 5.81445 61.3945 6.18164C61.3945 6.54883 61.5059 6.80273 61.7285 6.94336C61.9551 7.08398 62.3086 7.1543 62.7891 7.1543ZM68.1035 11.4492V10.5938C68.1035 10.0977 68.2051 9.66797 68.4082 9.30469C68.6152 8.94141 68.8789 8.65625 69.1992 8.44922C69.5195 8.24219 69.875 8.06445 70.2656 7.91602C70.6562 7.76758 71.0469 7.64844 71.4375 7.55859C71.832 7.46484 72.1895 7.37109 72.5098 7.27734C73.2363 7.05859 73.5996 6.74805 73.5996 6.3457C73.5996 5.9082 73.4863 5.60938 73.2598 5.44922C73.0332 5.28906 72.6504 5.20898 72.1113 5.20898H71.6953C70.9414 5.20898 70.4453 5.44922 70.207 5.92969C70.0312 6.29688 69.7676 6.48047 69.416 6.48047H68.7188C68.5273 6.48047 68.3789 6.41211 68.2734 6.27539C68.168 6.13867 68.1152 5.99023 68.1152 5.83008C68.1152 5.38477 68.2852 4.98438 68.625 4.62891C68.9688 4.26953 69.3945 4 69.9023 3.82031C70.4102 3.64062 70.9395 3.55078 71.4902 3.55078H72.2812C73.9961 3.55078 75.082 4.02734 75.5391 4.98047C75.7188 5.35547 75.8086 5.79102 75.8086 6.28711C75.8086 6.7832 75.707 7.20508 75.5039 7.55273C75.3008 7.90039 75.0391 8.17773 74.7188 8.38477C74.3984 8.58789 74.041 8.76367 73.6465 8.91211C73.2559 9.06055 72.8652 9.18359 72.4746 9.28125C72.084 9.375 71.7285 9.46484 71.4082 9.55078C70.6777 9.75391 70.3125 10.0176 70.3125 10.3418H75.1758C75.3359 10.3418 75.4688 10.3965 75.5742 10.5059C75.6836 10.6152 75.7383 10.7461 75.7383 10.8984V11.4492C75.7383 11.6016 75.6816 11.7324 75.5684 11.8418C75.459 11.9473 75.3281 12 75.1758 12H68.6719C68.5195 12 68.3867 11.9473 68.2734 11.8418C68.1602 11.7324 68.1035 11.6016 68.1035 11.4492Z" fill="#1A1C1E"/>
<path d="M3.22266 11.4609L4.69336 5.88281C5.0918 4.36328 6.38867 3.60156 8.58398 3.59766H11.7422C11.8867 3.59766 12.0059 3.65234 12.0996 3.76172C12.1973 3.87109 12.2461 3.99805 12.2461 4.14258V11.4609C12.2461 11.6133 12.1914 11.7422 12.082 11.8477C11.9727 11.9492 11.8418 12 11.6895 12H10.5879C10.4277 12 10.2949 11.9492 10.1895 11.8477C10.0879 11.7422 10.0371 11.6094 10.0371 11.4492V9.97266H5.87109L5.47852 11.4492C5.43945 11.6094 5.35156 11.7422 5.21484 11.8477C5.07812 11.9492 4.93359 12 4.78125 12H3.62695C3.47461 12 3.36523 11.957 3.29883 11.8711C3.23242 11.7812 3.19922 11.7031 3.19922 11.6367C3.20312 11.5703 3.21094 11.5117 3.22266 11.4609ZM6.30469 8.31445H10.0371V5.25586H8.36719C7.99219 5.25586 7.66406 5.36328 7.38281 5.57812C7.10547 5.78906 6.91797 6.07422 6.82031 6.43359L6.30469 8.31445ZM22.6172 11.7422C22.6172 11.9141 22.5156 12 22.3125 12H20.9707C20.8184 12 20.6543 11.9473 20.4785 11.8418C20.3027 11.7324 20.166 11.6016 20.0684 11.4492L19.0371 9.81445C18.791 9.41602 18.543 9.11719 18.293 8.91797C18.043 8.71484 17.7422 8.61328 17.3906 8.61328H16.1309V11.4609C16.1309 11.6133 16.0762 11.7422 15.9668 11.8477C15.8613 11.9492 15.7324 12 15.5801 12H14.4785C14.3262 12 14.1953 11.9453 14.0859 11.8359C13.9766 11.7227 13.9219 11.5898 13.9219 11.4375V4.1543C13.9219 4.00195 13.9766 3.86914 14.0859 3.75586C14.1953 3.64258 14.3262 3.58594 14.4785 3.58594H15.5801C15.7324 3.58594 15.8613 3.64258 15.9668 3.75586C16.0762 3.86914 16.1309 4.00195 16.1309 4.1543V6.96094H17.3906C17.7344 6.96094 18.0352 6.86719 18.293 6.67969C18.5547 6.49219 18.8027 6.18945 19.0371 5.77148L19.9453 4.1543C20.1523 3.7793 20.4336 3.58984 20.7891 3.58594H22.1426C22.3301 3.58594 22.4238 3.66797 22.4238 3.83203C22.4238 3.92187 22.3906 4.0293 22.3242 4.1543L21.0527 6.45703C20.8691 6.79297 20.6621 7.07031 20.4316 7.28906C20.2051 7.50781 19.9082 7.66211 19.541 7.75195C19.7988 7.80664 20.0625 7.96875 20.332 8.23828C20.6055 8.50781 20.8457 8.80078 21.0527 9.11719L22.5176 11.4492C22.584 11.5625 22.6172 11.6602 22.6172 11.7422ZM32.1562 11.7422C32.1562 11.9141 32.0547 12 31.8516 12H30.5098C30.3574 12 30.1934 11.9473 30.0176 11.8418C29.8418 11.7324 29.7051 11.6016 29.6074 11.4492L28.5762 9.81445C28.3301 9.41602 28.082 9.11719 27.832 8.91797C27.582 8.71484 27.2812 8.61328 26.9297 8.61328H25.6699V11.4609C25.6699 11.6133 25.6152 11.7422 25.5059 11.8477C25.4004 11.9492 25.2715 12 25.1191 12H24.0176C23.8652 12 23.7344 11.9453 23.625 11.8359C23.5156 11.7227 23.4609 11.5898 23.4609 11.4375V4.1543C23.4609 4.00195 23.5156 3.86914 23.625 3.75586C23.7344 3.64258 23.8652 3.58594 24.0176 3.58594H25.1191C25.2715 3.58594 25.4004 3.64258 25.5059 3.75586C25.6152 3.86914 25.6699 4.00195 25.6699 4.1543V6.96094H26.9297C27.2734 6.96094 27.5742 6.86719 27.832 6.67969C28.0938 6.49219 28.3418 6.18945 28.5762 5.77148L29.4844 4.1543C29.6914 3.7793 29.9727 3.58984 30.3281 3.58594H31.6816C31.8691 3.58594 31.9629 3.66797 31.9629 3.83203C31.9629 3.92187 31.9297 4.0293 31.8633 4.1543L30.5918 6.45703C30.4082 6.79297 30.2012 7.07031 29.9707 7.28906C29.7441 7.50781 29.4473 7.66211 29.0801 7.75195C29.3379 7.80664 29.6016 7.96875 29.8711 8.23828C30.1445 8.50781 30.3848 8.80078 30.5918 9.11719L32.0566 11.4492C32.123 11.5625 32.1562 11.6602 32.1562 11.7422ZM34.7754 10.2363L35.7598 10.3418H35.8828C36.6602 10.3418 37.1914 9.83398 37.4766 8.81836H36.9727C35.9883 8.81836 35.2207 8.61914 34.6699 8.2207C34.1191 7.81836 33.6465 7.16602 33.252 6.26367L32.332 4.1543C32.2656 3.99805 32.2637 3.86719 32.3262 3.76172C32.3926 3.65234 32.502 3.59766 32.6543 3.59766H33.8906C34.2656 3.59766 34.5254 3.77539 34.6699 4.13086L35.3438 5.75977C35.543 6.23242 35.793 6.58594 36.0938 6.82031C36.3945 7.05078 36.791 7.16602 37.2832 7.16602H38.0039L39.0645 4.14258C39.1191 3.97461 39.2148 3.8418 39.3516 3.74414C39.4883 3.64648 39.6367 3.59766 39.7969 3.59766H40.9805C41.1328 3.59766 41.2383 3.64062 41.2969 3.72656C41.3555 3.80859 41.3848 3.88281 41.3848 3.94922C41.3848 4.01172 41.375 4.07227 41.3555 4.13086L39.4453 9.59766C39.1797 10.3672 38.7793 10.9609 38.2441 11.3789C37.709 11.793 36.9609 12 36 12H34.5879C34.4355 12 34.3047 11.9473 34.1953 11.8418C34.0859 11.7324 34.0312 11.6016 34.0312 11.4492V10.7871C34.0312 10.6348 34.084 10.5059 34.1895 10.4004C34.2949 10.291 34.4277 10.2363 34.5879 10.2363H34.7754ZM42.3516 11.4375V4.16602C42.3516 4.00586 42.4043 3.87109 42.5098 3.76172C42.6152 3.65234 42.7441 3.59766 42.8965 3.59766H45.2812C45.4336 3.59766 45.5781 3.65234 45.7148 3.76172C45.8516 3.87109 45.9434 4.00195 45.9902 4.1543L47.7188 9.1582L49.4473 4.1543C49.4941 4.00195 49.5859 3.87109 49.7227 3.76172C49.8594 3.65234 50.0039 3.59766 50.1562 3.59766H52.541C52.6934 3.59766 52.8203 3.65234 52.9219 3.76172C53.0273 3.87109 53.0801 4.00586 53.0801 4.16602V11.4375C53.0801 11.5977 53.0254 11.7324 52.916 11.8418C52.8105 11.9473 52.6816 12 52.5293 12H51.4746C51.3223 12 51.1914 11.9473 51.082 11.8418C50.9766 11.7324 50.9238 11.5977 50.9238 11.4375V5.71289L48.8555 11.4727C48.8008 11.6172 48.7051 11.7422 48.5684 11.8477C48.4316 11.9492 48.2871 12 48.1348 12H47.2969C47.1445 12 47 11.9492 46.8633 11.8477C46.7305 11.7422 46.6348 11.6172 46.5762 11.4727L44.5137 5.71289V11.4375C44.5137 11.5977 44.459 11.7324 44.3496 11.8418C44.2441 11.9473 44.1152 12 43.9629 12H42.9082C42.7559 12 42.625 11.9473 42.5156 11.8418C42.4062 11.7324 42.3516 11.5977 42.3516 11.4375Z" fill="white"/>
</svg>
